<svg width="114" height="28" viewBox="0 0 114 28" fill="none" xmlns="http://www.w3.org/2000/svg">
<path d="M30.281 3.8808C27.3364 1.08663 24.278 0.504505 20.6116 0.504505H14.0197V27.2238H20.6116C23.841 27.2238 27.2605 26.797 30.4139 23.6729C32.9975 21.131 34.4223 17.6577 34.4223 13.8933C34.4413 10.0125 32.9595 6.44213 30.281 3.8808ZM32.7125 13.8933C32.7125 17.0755 31.4968 20.0832 29.2931 22.334C27.1085 24.5461 24.5249 25.4969 20.6496 25.4969H15.7484V2.23146H20.6496C24.4299 2.23146 26.8615 3.06584 29.0462 5.08385C31.4018 7.31532 32.7125 10.4588 32.7125 13.8933ZM105.983 14.3784C106.591 14.3008 107.237 14.1261 108.092 13.6992C110.429 12.5544 111.758 10.2453 111.758 7.33472C111.758 5.02564 110.809 3.10464 108.928 1.66875C107.389 0.485101 105.584 0.504505 103.476 0.504505H102.83H97.9477V27.2238H99.6764V14.4172H103.894C104.16 14.8053 112.632 27.4373 112.632 27.4373L114 26.3119L105.983 14.3784ZM110.049 7.2571C110.049 9.46916 109.099 11.2155 107.37 12.1663C106.363 12.7096 105.052 12.7096 103.875 12.6902H103.533H99.6954V2.23146H103.267H103.647C105.052 2.23146 106.781 2.21206 107.921 3.04643C109.289 4.03604 110.049 5.53015 110.049 7.2571ZM35.5811 0.446292V27.2821H47.853V25.4193H37.4238V14.2231H47.5871V12.3604H37.4238V2.28967H47.853V0.446292H35.5811ZM69.2625 23.964C67.1918 25.3805 64.7032 26.2342 62.5756 26.2342C59.6881 26.2342 56.4206 24.7983 54.046 22.4893C51.7854 20.2772 50.4936 17.2502 50.4936 14.1649C50.4936 7.48995 56.0217 1.84338 62.5756 1.84338C65.2541 1.84338 67.8757 2.81358 69.9653 4.59875L70.2503 4.85101L71.5611 3.70617L71.1621 3.3569C68.8255 1.28067 65.7101 0.0970201 62.6326 0.0970201C58.9662 0.0970201 55.5087 1.55232 52.8682 4.19127C50.2086 6.84962 48.7459 10.3617 48.7459 14.0873C48.7459 21.6161 55.0908 27.9806 62.5946 27.9806C65.3301 27.9806 67.9897 27.1268 70.3263 25.4969L70.7062 25.2252L69.6044 23.7311L69.2625 23.964ZM83.0542 0C75.5884 0 69.2815 6.44213 69.2815 14.0679C69.2815 17.7547 70.7252 21.2474 73.3658 23.9058C75.9873 26.5447 79.4258 28 83.0542 28C86.6826 28 90.121 26.5447 92.7425 23.9058C95.3831 21.2474 96.8269 17.7547 96.8269 14.0679C96.8269 6.44213 90.5199 0 83.0542 0ZM74.5816 22.6445C72.302 20.3354 71.0482 17.289 71.0482 14.0679C71.0482 7.39293 76.5382 1.74636 83.0542 1.74636C89.5891 1.74636 95.0982 7.39293 95.0982 14.0679C95.0982 20.6459 89.5891 26.2148 83.0542 26.2148C79.8817 26.2342 76.8612 24.9536 74.5816 22.6445ZM9.0045 22.2564V22.4699H9.04249C11.2461 22.4699 12.025 23.5953 12.025 24.6625V25.1282H6.13598V24.9536C6.13598 24.1774 6.93384 23.7117 8.28262 23.7117H8.32061V23.4983H3.64739V23.7117H3.68539C4.7872 23.7117 5.90802 24.0998 5.90802 24.9536V25.1282H0.227962V24.5267C0.227962 23.5953 0.968839 22.4893 3.03949 22.4893H3.07749V22.2758H0.0189968V27.2238H0.246959V26.4089H12.044V27.2238H12.272V22.2564H9.0045ZM8.9855 14.7859V15.0187H9.0235C10.9422 15.0575 12.025 15.8337 12.025 17.1337V17.6965H0.227962V16.7651H0V19.9279H0.227962V18.9965H12.025V19.9279H12.253V14.7859H8.9855ZM8.9855 7.48995V7.7228H9.0235C10.9422 7.76161 12.025 8.53777 12.025 9.83784V10.4006H0.227962V9.46916H0V12.632H0.227962V11.7006H12.025V12.632H12.253V7.48995H8.9855ZM12.215 0.504505H9.0045V0.717949H9.04249C11.2461 0.717949 12.025 1.84338 12.025 2.9106V3.3763H6.13598V3.20166C6.13598 2.4255 6.93384 1.95981 8.28262 1.95981H8.32061V1.74636H3.64739V1.95981H3.68539C4.7872 1.95981 5.90802 2.34789 5.90802 3.20166V3.3763H0.227962V2.77477C0.227962 1.84338 0.968839 0.737353 3.03949 0.737353H3.07749V0.523909H0.0189968V5.47193H0.246959V4.65696H12.044V5.47193H12.272V0.504505C12.253 0.504505 12.215 0.504505 12.215 0.504505ZM100.189 26.273C100.189 25.9238 100.474 25.6327 100.816 25.6327C101.158 25.6327 101.443 25.9238 101.443 26.273C101.443 26.6223 101.158 26.9134 100.816 26.9134C100.474 26.9134 100.189 26.6223 100.189 26.273ZM101.367 26.273C101.367 25.9626 101.12 25.7103 100.835 25.7103C100.531 25.7103 100.284 25.9626 100.284 26.273C100.284 26.5835 100.531 26.8358 100.835 26.8358C101.12 26.8358 101.367 26.5835 101.367 26.273ZM101.12 26.6223H101.025L100.835 26.2924H100.664V26.6223H100.588V25.9238H100.892C101.063 25.9238 101.139 26.0014 101.139 26.1178C101.139 26.2536 101.044 26.3119 100.93 26.3119L101.12 26.6223ZM100.797 26.2342C100.892 26.2342 101.044 26.2536 101.044 26.1178C101.044 26.0208 100.949 26.0208 100.854 26.0208H100.664V26.2342H100.797Z" fill="#2D3C5C"/>
</svg>
